<svg
  xmlns="http://www.w3.org/2000/svg"
  width="896"
  height="288"
  viewBox="0 0 896 288"
  fill="none"
>
  <style>
    * {
      transform-origin: center;
      transform-box: fill-box;
    }

    .animate-ping {
      animation: ping 1s cubic-bezier(0, 0, 0.2, 1) infinite;
    }

    .animate-fade-in {
      animation: fade-in 0.64s cubic-bezier(0, 0, 0.2, 1) forwards;
    }

    .animate-fade-in-bottom {
      animation: fade-in-bottom 0.64s cubic-bezier(0, 0, 0.2, 1) forwards;
    }

    .animate-fade-in-right {
      animation: fade-in-right 0.64s cubic-bezier(0, 0, 0.2, 1) forwards;
    }

    .title {
      opacity: 0;
      animation-delay: 0.4s;
    }

    .description {
      opacity: 0;
      animation-delay: 0.7s;
    }

    .additional {
      opacity: 0;
      animation-delay: 1s;
    }

    .additional__indicator {
      opacity: 0;
      animation-delay: 1.6s;
    }

    @keyframes ping {
      75%,
      100% {
        transform: scale(2);
        opacity: 0;
      }
    }

    @keyframes fade-in {
      from {
        opacity: 0;
      }
      to {
        opacity: 1;
      }
    }

    @keyframes fade-in-bottom {
      from {
        opacity: 0;
        transform: translate3d(0, -20px, 0);
      }
      to {
        opacity: 1;
        transform: translate3d(0, 0, 0);
      }
    }

    @keyframes fade-in-right {
      from {
        opacity: 0;
        transform: translate3d(-20px, 0, 0);
      }
      to {
        opacity: 1;
        transform: translate3d(0, 0, 0);
      }
    }
  </style>
  <g clip-path="url(#clip0_1_2)">
    <!-- #region background  -->
    <rect width="896" height="288" fill="url(#paint0_linear_1_2)" />
    <mask
      id="mask0_1_2"
      style="mask-type: alpha"
      maskUnits="userSpaceOnUse"
      x="0"
      y="0"
      width="896"
      height="288"
    >
      <rect width="896" height="288" fill="url(#paint1_linear_1_2)" />
    </mask>
    <g mask="url(#mask0_1_2)">
      <path
        d="M32.5001 0L32.5001 288M64.5001 0L64.5001 288M96.5001 0L96.5001 288M128.5 0L128.5 288M160.5 0L160.5 288M192.5 0L192.5 288M224.5 0L224.5 288M256.5 0V288M288.5 0V288M320.5 0V288M352.5 0V288M384.5 0V288M416.5 0V288M448.5 0V288M480.5 0V288M512.5 0V288M544.5 0V288M576.5 0V288M608.5 0V288M640.5 0V288M672.5 0V288M704.5 0V288M736.5 0V288M768.5 0V288M800.5 0V288M832.5 0V288M864.5 0V288M0 31.5H896M0 63.5H896M0 95.5H896M0 127.5H896M0 159.5H896M0 191.5H896M0 223.5H896M0 255.5H896"
        stroke="black"
        stroke-opacity="0.07"
        stroke-dasharray="5 5"
      />
    </g>
    <!-- #endregion -->

    <!-- #region title -->
    <g class="animate-fade-in-bottom title">
      <path
        d="M211.224 151V103.32H221.144V151H211.224ZM232.991 122.84L231.839 103.32H240.159L239.071 122.84H232.991ZM250.208 151V116.056H259.168V124.568L258.208 123.16C258.72 120.472 259.957 118.488 261.92 117.208C263.882 115.928 266.229 115.288 268.96 115.288C271.861 115.288 274.4 116.035 276.576 117.528C278.794 118.979 280.181 120.941 280.736 123.416L277.984 123.672C279.136 120.813 280.778 118.701 282.912 117.336C285.045 115.971 287.541 115.288 290.4 115.288C292.917 115.288 295.136 115.843 297.056 116.952C299.018 118.061 300.554 119.619 301.664 121.624C302.773 123.587 303.328 125.891 303.328 128.536V151H293.728V130.584C293.728 129.219 293.472 128.045 292.96 127.064C292.49 126.083 291.808 125.315 290.912 124.76C290.016 124.205 288.928 123.928 287.648 123.928C286.41 123.928 285.322 124.205 284.384 124.76C283.488 125.315 282.784 126.083 282.272 127.064C281.802 128.045 281.568 129.219 281.568 130.584V151H271.968V130.584C271.968 129.219 271.712 128.045 271.2 127.064C270.73 126.083 270.048 125.315 269.152 124.76C268.256 124.205 267.168 123.928 265.888 123.928C264.65 123.928 263.562 124.205 262.624 124.76C261.728 125.315 261.024 126.083 260.512 127.064C260.042 128.045 259.808 129.219 259.808 130.584V151H250.208ZM442.599 151V103.32H452.519V127.192L449.767 126.232L468.839 103.32H481.255L462.375 126.104L462.951 119.064L481.639 151H470.055L458.407 130.84L452.519 137.944V151H442.599ZM498.377 151.768C495.561 151.768 493.15 151.171 491.145 149.976C489.182 148.739 487.689 147.032 486.665 144.856C485.641 142.68 485.129 140.141 485.129 137.24V116.056H494.729V136.472C494.729 137.795 494.985 138.968 495.497 139.992C496.051 140.973 496.819 141.741 497.801 142.296C498.782 142.851 499.891 143.128 501.128 143.128C502.409 143.128 503.518 142.851 504.457 142.296C505.438 141.741 506.185 140.973 506.697 139.992C507.251 138.968 507.529 137.795 507.529 136.472V116.056H517.129V151H508.169V144.088L508.681 145.624C507.87 147.715 506.547 149.272 504.713 150.296C502.921 151.277 500.809 151.768 498.377 151.768ZM537.841 151.768C534.001 151.768 530.652 150.872 527.793 149.08C524.977 147.245 523.057 144.792 522.033 141.72L529.073 138.392C529.969 140.269 531.185 141.741 532.721 142.808C534.257 143.875 535.964 144.408 537.841 144.408C539.206 144.408 540.252 144.131 540.977 143.576C541.702 143.021 542.065 142.253 542.065 141.272C542.065 140.76 541.937 140.333 541.681 139.992C541.425 139.608 541.041 139.267 540.529 138.968C540.017 138.669 539.377 138.413 538.609 138.2L532.657 136.536C529.798 135.725 527.601 134.424 526.065 132.632C524.529 130.797 523.761 128.643 523.761 126.168C523.761 123.992 524.316 122.093 525.425 120.472C526.534 118.851 528.092 117.592 530.097 116.696C532.102 115.757 534.406 115.288 537.009 115.288C540.422 115.288 543.409 116.099 545.969 117.72C548.572 119.299 550.406 121.539 551.473 124.44L544.369 127.768C543.857 126.317 542.918 125.165 541.553 124.312C540.23 123.416 538.716 122.968 537.009 122.968C535.772 122.968 534.79 123.224 534.065 123.736C533.382 124.248 533.041 124.952 533.041 125.848C533.041 126.317 533.169 126.744 533.425 127.128C533.681 127.512 534.086 127.853 534.641 128.152C535.238 128.451 535.964 128.728 536.817 128.984L542.385 130.648C545.286 131.501 547.505 132.803 549.041 134.552C550.577 136.259 551.345 138.371 551.345 140.888C551.345 143.064 550.769 144.963 549.617 146.584C548.508 148.205 546.95 149.485 544.945 150.424C542.94 151.32 540.572 151.768 537.841 151.768ZM557.083 151V116.056H566.043V122.968L565.531 121.432C566.341 119.341 567.643 117.805 569.435 116.824C571.269 115.8 573.403 115.288 575.835 115.288C578.48 115.288 580.784 115.843 582.747 116.952C584.752 118.061 586.309 119.619 587.419 121.624C588.528 123.587 589.083 125.891 589.083 128.536V151H579.483V130.584C579.483 129.219 579.205 128.045 578.651 127.064C578.139 126.083 577.392 125.315 576.411 124.76C575.472 124.205 574.363 123.928 573.083 123.928C571.845 123.928 570.736 124.205 569.755 124.76C568.773 125.315 568.005 126.083 567.451 127.064C566.939 128.045 566.683 129.219 566.683 130.584V151H557.083ZM606.211 151.768C603.694 151.768 601.518 151.363 599.683 150.552C597.848 149.741 596.44 148.589 595.459 147.096C594.478 145.56 593.987 143.747 593.987 141.656C593.987 139.693 594.435 137.965 595.331 136.472C596.227 134.936 597.592 133.656 599.427 132.632C601.304 131.608 603.63 130.883 606.403 130.456L617.091 128.728V135.768L608.131 137.368C606.766 137.624 605.72 138.072 604.995 138.712C604.27 139.309 603.907 140.184 603.907 141.336C603.907 142.403 604.312 143.235 605.123 143.832C605.934 144.429 606.936 144.728 608.131 144.728C609.71 144.728 611.096 144.387 612.291 143.704C613.486 143.021 614.403 142.104 615.043 140.952C615.726 139.757 616.067 138.456 616.067 137.048V127.96C616.067 126.637 615.534 125.528 614.467 124.632C613.443 123.736 612.035 123.288 610.243 123.288C608.536 123.288 607.022 123.757 605.699 124.696C604.419 125.635 603.48 126.872 602.883 128.408L595.203 124.76C595.886 122.797 596.974 121.112 598.467 119.704C599.96 118.296 601.752 117.208 603.843 116.44C605.934 115.672 608.216 115.288 610.691 115.288C613.635 115.288 616.238 115.821 618.499 116.888C620.76 117.955 622.51 119.448 623.747 121.368C625.027 123.245 625.667 125.443 625.667 127.96V151H616.707V145.368L618.883 144.984C617.859 146.52 616.728 147.8 615.491 148.824C614.254 149.805 612.867 150.531 611.331 151C609.795 151.512 608.088 151.768 606.211 151.768ZM649.156 151.768C645.742 151.768 642.692 150.957 640.004 149.336C637.316 147.715 635.182 145.517 633.604 142.744C632.068 139.971 631.299 136.899 631.299 133.528C631.299 130.115 632.089 127.043 633.668 124.312C635.246 121.539 637.38 119.341 640.068 117.72C642.756 116.099 645.764 115.288 649.092 115.288C651.652 115.288 653.913 115.779 655.876 116.76C657.881 117.699 659.46 119.043 660.612 120.792L659.14 122.712V102.552H668.74V151H659.78V144.6L660.676 146.584C659.481 148.291 657.86 149.592 655.812 150.488C653.764 151.341 651.545 151.768 649.156 151.768ZM650.308 143.128C652.057 143.128 653.593 142.723 654.916 141.912C656.238 141.101 657.262 139.971 657.988 138.52C658.756 137.069 659.14 135.405 659.14 133.528C659.14 131.651 658.756 129.987 657.988 128.536C657.262 127.085 656.238 125.955 654.916 125.144C653.593 124.333 652.057 123.928 650.308 123.928C648.558 123.928 646.98 124.355 645.572 125.208C644.206 126.019 643.14 127.149 642.372 128.6C641.604 130.008 641.22 131.651 641.22 133.528C641.22 135.405 641.604 137.069 642.372 138.52C643.14 139.971 644.206 141.101 645.572 141.912C646.98 142.723 648.558 143.128 650.308 143.128ZM675.77 151V116.056H685.37V151H675.77ZM675.77 112.92V103.32H685.37V112.92H675.77Z"
        fill="#334155"
      />
      <text x="220" y="180" font-size="24" fill="#7733FF" font-family="Arial, sans-serif">yousfi zineb</text>

    </g>
    <!-- #endregion -->

    <!-- #region description -->
    <g class="animate-fade-in-bottom description">
    <text x="220" y="180" font-size="24" fill="#7733FF" font-family="Arial, sans-serif">Software Z</text>

    </g>
    <!-- #endregion -->

    <!-- #region additional  -->
    <g class="animate-fade-in-right additional">
      <g class="additional__indicator animate-fade-in">
        <circle cx="373" cy="215" r="5" fill="#7733ff" class="animate-ping" />
        <circle cx="373" cy="215" r="3" fill="#7733ff" />
      </g>
      <g class="additional__text">
         <text x="220" y="180" font-size="24" fill="#7733FF" font-family="Arial, sans-serif">Software Engineer</text>

      </g>
    </g>
    <!-- #endregion -->
  </g>

  <!-- #region defs -->
  <defs>
    <linearGradient
      id="paint0_linear_1_2"
      x1="448"
      y1="0"
      x2="448"
      y2="288"
      gradientUnits="userSpaceOnUse"
    >
      <stop stop-color="#e2e8f0" />
      <stop offset="1" stop-color="#e2e8f0" stop-opacity="0" />
    </linearGradient>
    <linearGradient
      id="paint1_linear_1_2"
      x1="448"
      y1="0"
      x2="448"
      y2="288"
      gradientUnits="userSpaceOnUse"
    >
      <stop />
      <stop offset="1" stop-opacity="0" />
    </linearGradient>
    <clipPath id="clip0_1_2">
      <path
        d="M0 32C0 14.3269 14.3269 0 32 0H864C881.673 0 896 14.3269 896 32V288H0V32Z"
        fill="white"
      />
    </clipPath>
  </defs>
  <!-- #endregion -->
</svg>
